<?xml version="1.0" encoding="utf-8"?>
<!-- Generator: Adobe Illustrator 25.4.1, SVG Export Plug-In . SVG Version: 6.00 Build 0)  -->
<svg version="1.1" xmlns="http://www.w3.org/2000/svg" xmlns:xlink="http://www.w3.org/1999/xlink" x="0px" y="0px"
	 viewBox="0 0 420 595" style="enable-background:new 0 0 420 595;" xml:space="preserve">
<style type="text/css">
	.st0{fill:#FFFFFF;}
</style>
<g id="Hintergrund">
</g>
<g id="Vordergrund">
	<g>
		
			<rect x="262.2" y="230.3" transform="matrix(0.7071 -0.7071 0.7071 0.7071 -88.6472 254.524)" class="st0" width="1.4" height="7.9"/>
		
			<rect x="262.2" y="230.3" transform="matrix(0.7071 -0.7071 0.7071 0.7071 -88.6472 254.524)" class="st0" width="1.4" height="7.9"/>
		<polygon class="st0" points="254.3,226.7 254.3,235.3 258.6,231 		"/>
		<polygon class="st0" points="254.3,226.7 254.3,235.3 258.6,231 		"/>
		<polygon class="st0" points="254.3,226.7 254.3,235.3 258.6,231 		"/>
		<polygon class="st0" points="254.3,226.7 254.3,235.3 258.6,231 		"/>
		
			<rect x="256.5" y="225.8" transform="matrix(0.7071 -0.7071 0.7071 0.7071 -86.6843 248.3758)" class="st0" width="0" height="6.1"/>
		
			<rect x="256.5" y="225.8" transform="matrix(0.7071 -0.7071 0.7071 0.7071 -86.6843 248.3758)" class="st0" width="0" height="6.1"/>
		
			<rect x="256.5" y="225.8" transform="matrix(0.7071 -0.7071 0.7071 0.7071 -86.6843 248.3758)" class="st0" width="0" height="6.1"/>
		<g>
			<path class="st0" d="M277.6,230.7L204,157.1l-73.5,73.5l6.9,6.9l-6.9,6.9l73.5,73.5l73.5-73.5l-6.9-6.9L277.6,230.7z
				 M274.1,244.4l-70.1,70.1l-70.1-70.1l6.8-6.8l-6.8-6.8l70.1-70.1l70.1,70.1l-6.8,6.8L274.1,244.4z"/>
			<polygon class="st0" points="203.9,300.8 141.7,238.6 135.8,244.4 203.9,312.5 272,244.4 266.2,238.6 			"/>
			<polygon class="st0" points="203.9,300.8 141.7,238.6 135.8,244.4 203.9,312.5 272,244.4 266.2,238.6 			"/>
			<polygon class="st0" points="153.7,224.5 153.7,214 164.2,214 203.9,174.3 243.7,214 254.3,214 254.3,224.7 260.6,231 260.6,231 
				266.2,236.6 272,230.7 203.9,162.6 135.8,230.7 141.7,236.6 			"/>
			<polygon class="st0" points="153.7,224.5 153.7,214 164.2,214 203.9,174.3 243.7,214 254.3,214 254.3,224.7 260.6,231 260.6,231 
				266.2,236.6 272,230.7 203.9,162.6 135.8,230.7 141.7,236.6 			"/>
			<polygon class="st0" points="254.3,237.3 254.3,246.9 244.7,246.9 203.9,287.6 163.2,246.9 153.7,246.9 153.7,237.4 148.3,232 
				142.7,237.6 203.9,298.8 265.2,237.6 259.6,232 			"/>
			<polyline class="st0" points="259.6,232 254.3,237.3 254.3,246.9 244.7,246.9 203.9,287.6 163.2,246.9 153.7,246.9 153.7,237.4 
				148.3,232 142.7,237.6 203.9,298.8 265.2,237.6 			"/>
			<polygon class="st0" points="203.9,174.3 164.2,214 164.2,214 			"/>
			<polygon class="st0" points="203.9,174.3 164.2,214 164.2,214 			"/>
			<polygon class="st0" points="147.3,231 153.7,224.5 153.7,224.5 141.7,236.6 142.7,237.6 148.3,232 			"/>
			<polygon class="st0" points="203.9,176.3 166.2,214 241.7,214 			"/>
			<polygon class="st0" points="203.9,176.3 166.2,214 241.7,214 			"/>
			<polygon class="st0" points="203.9,176.3 166.2,214 241.7,214 			"/>
			<polygon class="st0" points="203.9,176.3 166.2,214 241.7,214 			"/>
			<polygon class="st0" points="203.9,285.6 242.7,246.9 165.2,246.9 			"/>
			<polygon class="st0" points="203.9,285.6 242.7,246.9 165.2,246.9 			"/>
			<polygon class="st0" points="203.9,285.6 242.7,246.9 165.2,246.9 			"/>
			<polygon class="st0" points="203.9,285.6 242.7,246.9 165.2,246.9 			"/>
			<polygon class="st0" points="153.7,235.4 153.7,226.5 149.3,231 			"/>
			<polygon class="st0" points="153.7,235.4 153.7,226.5 149.3,231 			"/>
			<polygon class="st0" points="153.7,235.4 153.7,226.5 149.3,231 			"/>
			<polygon class="st0" points="153.7,235.4 153.7,226.5 149.3,231 			"/>
			<polygon class="st0" points="241.7,214 203.9,176.3 241.7,214 			"/>
			<polygon class="st0" points="241.7,214 203.9,176.3 241.7,214 			"/>
			<polygon class="st0" points="241.7,214 203.9,176.3 241.7,214 			"/>
			<polygon class="st0" points="212.4,226.3 212.4,226.4 212.4,226.3 212.4,226.3 			"/>
			<path class="st0" d="M172,244.5l8.3-28.2h-8.9c0,0-2.8,12.1-3.2,14.4h-0.1c-0.3-2.3-2.8-14.4-2.8-14.4h-8.7l7,28.2H172z"/>
			<path class="st0" d="M172,244.5l8.3-28.2h-8.9c0,0-2.8,12.1-3.2,14.4h-0.1c-0.3-2.3-2.8-14.4-2.8-14.4h-8.7l7,28.2H172z"/>
			<polygon class="st0" points="198.9,223 198.9,216.4 183.5,216.4 183.5,244.5 198.9,244.5 198.9,237.9 191.8,237.9 191.8,233.6 
				197.1,233.6 197.1,226.9 191.8,226.9 191.8,223 			"/>
			<polygon class="st0" points="198.9,223 198.9,216.4 183.5,216.4 183.5,244.5 198.9,244.5 198.9,237.9 191.8,237.9 191.8,233.6 
				197.1,233.6 197.1,226.9 191.8,226.9 191.8,223 			"/>
			<polygon class="st0" points="204.2,216.4 204.2,244.5 212.4,244.5 212.4,233.6 212.5,233.6 217.6,244.5 226.5,244.5 219.1,230 
				225.7,216.4 217,216.4 212.5,226.3 212.4,226.3 212.4,226.4 212.4,226.3 212.4,226.3 212.4,226.3 212.4,216.4 			"/>
			<polygon class="st0" points="204.2,216.4 204.2,244.5 212.4,244.5 212.4,233.6 212.5,233.6 217.6,244.5 226.5,244.5 219.1,230 
				225.7,216.4 217,216.4 212.5,226.3 212.4,226.3 212.4,226.4 212.4,226.3 212.4,226.3 212.4,226.3 212.4,216.4 			"/>
			<path class="st0" d="M227.6,244.5h8.5l0.7-3.6h5.5l0.6,3.6h8.5l-6.5-28.2h-10.1L227.6,244.5z M239,228.4c0.3-1.8,0.5-3.6,0.8-5.3
				h0.1c0.2,1.8,0.4,3.6,0.6,5.3l0.9,5.5h-3.5L239,228.4z"/>
			<path class="st0" d="M227.6,244.5h8.5l0.7-3.6h5.5l0.6,3.6h8.5l-6.5-28.2h-10.1L227.6,244.5z M239,228.4c0.3-1.8,0.5-3.6,0.8-5.3
				h0.1c0.2,1.8,0.4,3.6,0.6,5.3l0.9,5.5h-3.5L239,228.4z"/>
		</g>
	</g>
</g>
<g id="Hilfslinien">
</g>
</svg>
