<?xml version="1.0" encoding="utf-8"?>
<!-- Generator: Adobe Illustrator 25.4.1, SVG Export Plug-In . SVG Version: 6.00 Build 0)  -->
<svg version="1.1" xmlns="http://www.w3.org/2000/svg" xmlns:xlink="http://www.w3.org/1999/xlink" x="0px" y="0px"
	 viewBox="0 0 420 595" style="enable-background:new 0 0 420 595;" xml:space="preserve">
<style type="text/css">
	.st0{fill:#0A51A1;}
	.st1{fill:#0A51A1;stroke:#FFFFFF;stroke-width:1.4173;stroke-miterlimit:3.8637;}
	.st2{fill:#FFFFFF;}
	.st3{fill-rule:evenodd;clip-rule:evenodd;fill:#0A51A1;stroke:#0A51A1;stroke-width:2.670000e-02;stroke-miterlimit:3.8637;}
</style>
<g id="Hintergrund">
</g>
<g id="Vordergrund">
	<g>
		<polygon class="st0" points="130.6,230.7 204.1,157.2 277.6,230.7 270.8,237.5 277.6,244.4 204.1,317.9 130.6,244.4 137.5,237.5 
					"/>
		<g>
			
				<rect x="155.2" y="195.6" transform="matrix(0.7071 -0.7071 0.7071 0.7071 -113.0682 215.8483)" class="st1" width="97.7" height="97.7"/>
			<path class="st1" d="M204,244.4"/>
		</g>
		<g>
			
				<rect x="155.2" y="181.9" transform="matrix(0.7071 -0.7071 0.7071 0.7071 -103.3955 211.8417)" class="st1" width="97.7" height="97.7"/>
			<path class="st1" d="M204,230.7"/>
		</g>
		<g>
			
				<rect x="164.7" y="191.6" transform="matrix(0.7071 -0.7071 0.7071 0.7071 -103.5676 211.9129)" class="st1" width="78.7" height="78.7"/>
			<path class="st1" d="M204,231"/>
		</g>
		<g>
			<rect x="153.9" y="214" class="st2" width="100.5" height="32.8"/>
			<path class="st2" d="M204.1,230.4"/>
		</g>
		<g>
			<path class="st3" d="M172.2,244.5l8.3-28.2h-8.9c0,0-2.8,12.1-3.2,14.4h-0.1c-0.3-2.3-2.8-14.4-2.8-14.4h-8.6l7,28.2H172.2z"/>
			<polygon class="st3" points="183.6,244.5 199,244.5 199,237.9 191.9,237.9 191.9,233.6 197.2,233.6 197.2,226.9 191.9,226.9 
				191.9,223 199,223 199,216.4 183.6,216.4 			"/>
			<polygon class="st3" points="226.5,244.5 219.2,230 225.8,216.4 217.1,216.4 212.6,226.4 212.4,226.4 212.4,226.4 212.5,226.4 
				212.5,226.4 212.5,226.4 212.5,216.4 204.3,216.4 204.3,244.5 212.5,244.5 212.5,233.6 212.6,233.6 212.6,233.6 217.7,244.5 			
				"/>
			<path class="st3" d="M251.5,244.5l-6.5-28.2h-10.1l-7.3,28.2h8.5l0.7-3.6h5.5l0.6,3.6H251.5z M237.9,233.9l1.1-5.5
				c0.3-1.8,0.5-3.5,0.8-5.3h0.1c0.2,1.8,0.4,3.5,0.6,5.3l0.9,5.5H237.9z"/>
		</g>
	</g>
</g>
<g id="Hilfslinien">
</g>
</svg>
